<svg width="32" height="32" viewBox="0 0 32 32" fill="none" xmlns="http://www.w3.org/2000/svg">
<g clip-path="url(#clip0_3611_14955)">
<rect width="32" height="32" fill="white"/>
<path d="M6.91291 8.61598H8.27089V14H6.91291V8.61598ZM4.53243 8.00888H10.6514V9.2071H4.53243V8.00888ZM12.525 14.1198C11.9872 14.1198 11.5052 14.02 11.0792 13.8203C10.6531 13.6179 10.3203 13.3343 10.0806 12.9695C9.841 12.6047 9.72118 12.1867 9.72118 11.7154C9.72118 11.2494 9.83568 10.8367 10.0647 10.4772C10.2963 10.1151 10.6159 9.83417 11.0233 9.63447C11.4306 9.43477 11.89 9.33491 12.4012 9.33491C12.9204 9.33491 13.3704 9.45074 13.7512 9.6824C14.1346 9.91139 14.4289 10.2389 14.6339 10.6649C14.8416 11.0883 14.9454 11.5822 14.9454 12.1467H10.7876V11.2601H14.2265L13.6993 11.5796C13.678 11.316 13.6127 11.0896 13.5036 10.9006C13.3944 10.7115 13.2466 10.5678 13.0602 10.4692C12.8765 10.368 12.6595 10.3175 12.4092 10.3175C12.1429 10.3175 11.9086 10.372 11.7062 10.4812C11.5039 10.5904 11.3468 10.7435 11.2349 10.9405C11.1258 11.1349 11.0712 11.3626 11.0712 11.6235C11.0712 11.9351 11.1404 12.2027 11.2789 12.4263C11.42 12.65 11.6237 12.8204 11.89 12.9376C12.1589 13.0547 12.4811 13.1133 12.8565 13.1133C13.1974 13.1133 13.5409 13.0641 13.887 12.9655C14.2358 12.8643 14.5474 12.7259 14.8216 12.5501V13.4448C14.5207 13.6578 14.1706 13.8243 13.7712 13.9441C13.3744 14.0612 12.9591 14.1198 12.525 14.1198ZM20.8541 12.1467C20.8062 12.5328 20.6584 12.8763 20.4108 13.1772C20.1658 13.4754 19.8463 13.7071 19.4522 13.8722C19.0581 14.0373 18.6228 14.1198 18.1461 14.1198C17.6109 14.1198 17.1356 14.02 16.7202 13.8203C16.3049 13.6179 15.9813 13.3357 15.7497 12.9735C15.5207 12.6114 15.4062 12.1973 15.4062 11.7314C15.4062 11.2627 15.5207 10.8473 15.7497 10.4852C15.9813 10.1231 16.3049 9.84083 16.7202 9.63846C17.1356 9.4361 17.6109 9.33491 18.1461 9.33491C18.6228 9.33491 19.0581 9.41879 19.4522 9.58654C19.8463 9.75163 20.1658 9.98462 20.4108 10.2855C20.6584 10.5837 20.8062 10.9272 20.8541 11.316H19.5201C19.4748 11.1136 19.3883 10.9405 19.2605 10.7967C19.1353 10.6503 18.9769 10.5398 18.7852 10.4652C18.5961 10.388 18.3831 10.3494 18.1461 10.3494C17.8665 10.3494 17.6216 10.404 17.4112 10.5132C17.2035 10.6223 17.0424 10.7808 16.9279 10.9885C16.8134 11.1962 16.7562 11.4438 16.7562 11.7314C16.7562 12.0163 16.8134 12.2626 16.9279 12.4703C17.0424 12.678 17.2035 12.8364 17.4112 12.9456C17.6216 13.0547 17.8665 13.1093 18.1461 13.1093C18.3805 13.1093 18.5935 13.0707 18.7852 12.9935C18.9796 12.9136 19.1393 12.8004 19.2645 12.654C19.3923 12.5075 19.4775 12.3385 19.5201 12.1467H20.8541ZM21.4945 7.84912H22.8325V14H21.4945V7.84912ZM24.5659 9.33491C24.9946 9.33491 25.3608 9.42145 25.6643 9.59453C25.9705 9.76494 26.2035 10.0112 26.3633 10.3334C26.5257 10.6556 26.6069 11.0351 26.6069 11.4717V14H25.2689V11.6754C25.2689 11.2707 25.169 10.9618 24.9693 10.7488C24.7723 10.5358 24.4874 10.4293 24.1146 10.4293C23.8563 10.4293 23.63 10.4865 23.4356 10.601C23.2412 10.7129 23.0921 10.8726 22.9883 11.0803C22.8844 11.2854 22.8325 11.525 22.8325 11.7993L22.3932 11.5676C22.4464 11.1016 22.5729 10.7009 22.7726 10.3654C22.975 10.0299 23.2306 9.77426 23.5395 9.59852C23.8483 9.42278 24.1905 9.33491 24.5659 9.33491ZM4.08048 24V22.9975L8.25429 18.7438L9.1929 19.0953H4.10844V18.0049H9.72012V19.0034L5.54231 23.2691L4.73551 22.9096H9.74409V24H4.08048ZM12.873 24.1198C12.3112 24.1198 11.8159 24.0213 11.3872 23.8243C10.9585 23.6246 10.6257 23.3436 10.3887 22.9815C10.1517 22.6167 10.0332 22.2 10.0332 21.7314C10.0332 21.2574 10.1517 20.8394 10.3887 20.4772C10.6257 20.1151 10.9585 19.8342 11.3872 19.6345C11.8159 19.4348 12.3112 19.3349 12.873 19.3349C13.4322 19.3349 13.9261 19.4348 14.3548 19.6345C14.7862 19.8342 15.1203 20.1151 15.3573 20.4772C15.5943 20.8394 15.7128 21.2574 15.7128 21.7314C15.7128 22.2 15.5943 22.6167 15.3573 22.9815C15.1203 23.3436 14.7862 23.6246 14.3548 23.8243C13.9261 24.0213 13.4322 24.1198 12.873 24.1198ZM12.873 23.1093C13.1766 23.1093 13.4402 23.0534 13.6638 22.9416C13.8875 22.8297 14.0593 22.6713 14.1791 22.4663C14.2989 22.2586 14.3588 22.0136 14.3588 21.7314C14.3588 21.4491 14.2989 21.2041 14.1791 20.9965C14.0593 20.7888 13.8875 20.629 13.6638 20.5172C13.4402 20.4053 13.1766 20.3494 12.873 20.3494C12.5668 20.3494 12.3019 20.4053 12.0782 20.5172C11.8545 20.629 11.6828 20.7888 11.563 20.9965C11.4431 21.2041 11.3832 21.4491 11.3832 21.7314C11.3832 22.0136 11.4431 22.2586 11.563 22.4663C11.6828 22.6713 11.8545 22.8297 12.0782 22.9416C12.3019 23.0534 12.5668 23.1093 12.873 23.1093ZM16.1633 19.4587H17.5013L17.7849 21.1842V24H16.4508V20.9845L16.1633 19.4587ZM19.5223 19.3349C19.951 19.3349 20.3171 19.4215 20.6207 19.5945C20.9269 19.7649 21.1599 20.0112 21.3196 20.3334C21.4794 20.653 21.5593 21.0324 21.5593 21.4717V24H20.2252V21.6754C20.2252 21.2707 20.1254 20.9618 19.9257 20.7488C19.7286 20.5358 19.4437 20.4293 19.071 20.4293C18.81 20.4293 18.5823 20.4865 18.388 20.601C18.1962 20.7129 18.0471 20.8726 17.9406 21.0803C17.8368 21.2854 17.7849 21.525 17.7849 21.7993L17.3495 21.5676C17.4028 21.1016 17.5292 20.7009 17.7289 20.3654C17.9286 20.0299 18.1829 19.7743 18.4918 19.5985C18.8033 19.4228 19.1468 19.3349 19.5223 19.3349ZM24.9872 24.1198C24.4493 24.1198 23.9674 24.02 23.5413 23.8203C23.1153 23.6179 22.7824 23.3343 22.5428 22.9695C22.3032 22.6047 22.1833 22.1867 22.1833 21.7154C22.1833 21.2494 22.2978 20.8367 22.5268 20.4772C22.7585 20.1151 23.078 19.8342 23.4854 19.6345C23.8928 19.4348 24.3521 19.3349 24.8634 19.3349C25.3826 19.3349 25.8326 19.4507 26.2134 19.6824C26.5968 19.9114 26.891 20.2389 27.0961 20.6649C27.3037 21.0883 27.4076 21.5822 27.4076 22.1467H23.2498V21.2601H26.6887L26.1614 21.5796C26.1401 21.316 26.0749 21.0896 25.9657 20.9006C25.8566 20.7115 25.7088 20.5678 25.5224 20.4692C25.3387 20.368 25.1216 20.3175 24.8714 20.3175C24.6051 20.3175 24.3708 20.372 24.1684 20.4812C23.966 20.5904 23.8089 20.7435 23.6971 20.9405C23.5879 21.1349 23.5333 21.3626 23.5333 21.6235C23.5333 21.9351 23.6026 22.2027 23.741 22.4263C23.8822 22.65 24.0859 22.8204 24.3521 22.9376C24.6211 23.0547 24.9432 23.1133 25.3187 23.1133C25.6595 23.1133 26.003 23.0641 26.3492 22.9655C26.698 22.8643 27.0095 22.7259 27.2838 22.5501V23.4448C26.9829 23.6578 26.6327 23.8243 26.2333 23.9441C25.8366 24.0612 25.4212 24.1198 24.9872 24.1198Z" fill="#006FEE"/>
</g>
<defs>
<clipPath id="clip0_3611_14955">
<rect width="32" height="32" fill="white"/>
</clipPath>
</defs>
</svg>
