<svg width="40" height="40" viewBox="0 0 40 40" fill="none" xmlns="http://www.w3.org/2000/svg">
<path d="M36.119 13.0372H32.0503V12.7698C32.0521 12.4072 31.9823 12.0478 31.8449 11.7122C31.7075 11.3766 31.5053 11.0714 31.2497 10.8141C30.9942 10.5568 30.6904 10.3524 30.3558 10.2127C30.0212 10.073 29.6623 10.0007 29.2996 10H10.9999C8.34776 10 5.80425 11.0536 3.9289 12.9289C2.05356 14.8042 1 17.3478 1 19.9999C1 22.652 2.05356 25.1956 3.9289 27.0709C5.80425 28.9462 8.34776 29.9998 10.9999 29.9998H29.2996C29.6623 29.9991 30.0212 29.9268 30.3558 29.7871C30.6904 29.6474 30.9942 29.443 31.2497 29.1857C31.5053 28.9284 31.7075 28.6232 31.8449 28.2876C31.9823 27.952 32.0521 27.5926 32.0503 27.23V26.9626H36.119C36.8773 26.9571 37.6029 26.6534 38.139 26.1173C38.6752 25.5811 38.9788 24.8555 38.9843 24.0973V15.9025C38.9843 15.1426 38.6825 14.4138 38.1451 13.8764C37.6078 13.3391 36.879 13.0372 36.119 13.0372ZM30.1401 27.23C30.1422 27.4553 30.0549 27.6722 29.8974 27.8333C29.7398 27.9944 29.5249 28.0866 29.2996 28.0896H10.9999C8.85438 28.0896 6.79673 27.2373 5.27962 25.7202C3.76251 24.2031 2.9102 22.1454 2.9102 19.9999C2.9102 17.8544 3.76251 15.7967 5.27962 14.2796C6.79673 12.7625 8.85438 11.9102 10.9999 11.9102H29.2996C29.5249 11.9132 29.7398 12.0054 29.8974 12.1665C30.0549 12.3276 30.1422 12.5445 30.1401 12.7698V27.23ZM37.0741 24.0973C37.0702 24.3494 36.9683 24.59 36.79 24.7683C36.6118 24.9466 36.3711 25.0484 36.119 25.0524H32.0503V14.9474H36.119C36.3724 14.9474 36.6153 15.048 36.7944 15.2272C36.9735 15.4063 37.0741 15.6492 37.0741 15.9025V24.0973Z" fill="#006FEE" stroke="#006FEE" stroke-width="0.5"/>
<path d="M9.09036 22.7582C8.54406 22.7574 8.01025 22.5947 7.55644 22.2906C7.10263 21.9864 6.74919 21.5545 6.54083 21.0495C6.33247 20.5445 6.27854 19.9891 6.38585 19.4534C6.49317 18.9178 6.75692 18.426 7.14375 18.0402C7.53058 17.6544 8.02311 17.3921 8.55906 17.2862C9.09501 17.1804 9.65031 17.2358 10.1547 17.4456C10.6592 17.6554 11.0901 18.01 11.3929 18.4646C11.6958 18.9193 11.8571 19.4536 11.8563 19.9999C11.8548 20.7323 11.5627 21.4341 11.0441 21.9513C10.5254 22.4685 9.82277 22.7587 9.09036 22.7582ZM9.09036 19.1441C8.92219 19.1448 8.758 19.1954 8.61849 19.2893C8.47897 19.3832 8.37037 19.5163 8.30636 19.6718C8.24235 19.8273 8.2258 19.9983 8.2588 20.1632C8.29179 20.3281 8.37285 20.4795 8.49177 20.5984C8.61069 20.7174 8.76214 20.7984 8.92704 20.8314C9.09195 20.8644 9.26293 20.8479 9.41845 20.7839C9.57396 20.7198 9.70706 20.6112 9.80096 20.4717C9.89486 20.3322 9.94537 20.168 9.94613 19.9999C9.94664 19.8873 9.92485 19.7758 9.88202 19.6718C9.83919 19.5677 9.77618 19.4732 9.69661 19.3936C9.61704 19.314 9.5225 19.251 9.41845 19.2082C9.31439 19.1654 9.20288 19.1436 9.09036 19.1441Z" fill="#006FEE" stroke="#006FEE" stroke-width="0.5"/>
</svg>
