<svg width="40" height="40" viewBox="0 0 40 40" fill="none" xmlns="http://www.w3.org/2000/svg">
<path fill-rule="evenodd" clip-rule="evenodd" d="M12.6637 7.47777C13.1084 5.29463 15.0511 3.75 17.2768 3.75H22.7225C24.9482 3.75 26.8908 5.29463 27.3357 7.47777C27.4383 7.98173 27.8948 8.35143 28.3697 8.35143H28.397L28.4243 8.35262C30.7633 8.4549 32.56 8.74195 34.06 9.72597C35.005 10.3459 35.8178 11.1436 36.4513 12.0744C37.2395 13.2324 37.587 14.5616 37.7537 16.1691C37.9163 17.7397 37.9163 19.7083 37.9163 22.2018V22.3437C37.9163 24.8372 37.9163 26.8058 37.7537 28.3763C37.587 29.9838 37.2395 31.313 36.4513 32.471C35.8178 33.4018 35.005 34.1995 34.06 34.8195C32.8875 35.5887 31.5433 35.9278 29.913 36.0907C28.3168 36.25 26.3147 36.25 23.772 36.25H16.2273C13.6846 36.25 11.6825 36.25 10.0863 36.0907C8.45599 35.9278 7.11186 35.5887 5.93942 34.8195C4.99437 34.1995 4.18142 33.4018 3.54799 32.471C2.75987 31.313 2.41227 29.9838 2.24571 28.3763C2.08297 26.8058 2.08299 24.8372 2.08301 22.3437V22.2018C2.08299 19.7083 2.08297 17.7397 2.24571 16.1691C2.41227 14.5616 2.75987 13.2324 3.54799 12.0744C4.18142 11.1436 4.99437 10.3459 5.93942 9.72597C7.43939 8.74195 9.23601 8.4549 11.5751 8.35262L11.6024 8.35143H11.6297C12.1045 8.35143 12.5611 7.98175 12.6637 7.47777ZM17.2768 6.25C16.2084 6.25 15.3148 6.98832 15.1134 7.97678C14.7873 9.57765 13.368 10.8364 11.6602 10.8513C9.41254 10.9511 8.20861 11.2273 7.31074 11.8163C6.63816 12.2575 6.06221 12.8235 5.61477 13.4809C5.15452 14.1572 4.87794 15.0221 4.73239 16.4267C4.58457 17.8535 4.58301 19.6927 4.58301 22.2727C4.58301 24.8528 4.58457 26.692 4.73239 28.1187C4.87794 29.5233 5.15452 30.3882 5.61477 31.0645C6.06221 31.722 6.63816 32.288 7.31074 32.7292C8.00662 33.1857 8.89707 33.4593 10.3347 33.603C11.7922 33.7485 13.6696 33.75 16.296 33.75H23.7033C26.3298 33.75 28.2072 33.7485 29.6647 33.603C31.1023 33.4593 31.9927 33.1857 32.6887 32.7292C33.3612 32.288 33.9372 31.722 34.3845 31.0645C34.8448 30.3882 35.1213 29.5233 35.267 28.1187C35.4148 26.692 35.4163 24.8528 35.4163 22.2727C35.4163 19.6927 35.4148 17.8535 35.267 16.4267C35.1213 15.0221 34.8448 14.1572 34.3845 13.4809C33.9372 12.8235 33.3612 12.2575 32.6887 11.8163C31.7907 11.2273 30.5868 10.9511 28.3392 10.8513C26.6313 10.8364 25.212 9.57765 24.886 7.97678C24.6845 6.98832 23.791 6.25 22.7225 6.25H17.2768ZM19.9997 17.9167C17.9287 17.9167 16.2497 19.5957 16.2497 21.6667C16.2497 23.7377 17.9287 25.4167 19.9997 25.4167C22.0707 25.4167 23.7497 23.7377 23.7497 21.6667C23.7497 19.5957 22.0707 17.9167 19.9997 17.9167ZM13.7497 21.6667C13.7497 18.2148 16.5479 15.4167 19.9997 15.4167C23.4515 15.4167 26.2497 18.2148 26.2497 21.6667C26.2497 25.1185 23.4515 27.9167 19.9997 27.9167C16.5479 27.9167 13.7497 25.1185 13.7497 21.6667ZM28.7497 16.6667C28.7497 15.9763 29.3093 15.4167 29.9997 15.4167H31.6663C32.3567 15.4167 32.9163 15.9763 32.9163 16.6667C32.9163 17.357 32.3567 17.9167 31.6663 17.9167H29.9997C29.3093 17.9167 28.7497 17.357 28.7497 16.6667Z" fill="#FDFDFD"/>
</svg>
