<svg width="40" height="40" viewBox="0 0 40 40" fill="none" xmlns="http://www.w3.org/2000/svg">
<g clip-path="url(#clip0_402_6721)">
<mask id="mask0_402_6721" style="mask-type:luminance" maskUnits="userSpaceOnUse" x="0" y="0" width="40" height="40">
<path d="M40 0H0V40H40V0Z" fill="white"/>
</mask>
<g mask="url(#mask0_402_6721)">
<path d="M8.88867 10H33.1118C34.1143 10 34.89 10.8786 34.7657 11.8734L33.5157 21.8733C33.4113 22.7075 32.7023 23.3333 31.8618 23.3333H27.5923H15.7405H13.3331" stroke="#006FEE" stroke-width="2" stroke-linejoin="round"/>
<path d="M3.33301 6.6665H7.05571C7.80931 6.6665 8.46916 7.17219 8.66508 7.89989L13.8343 27.0998C14.0302 27.8275 14.69 28.3332 15.4436 28.3332H31.6663" stroke="#006FEE" stroke-width="2" stroke-linecap="round" stroke-linejoin="round"/>
<path d="M16.6667 34.9998C17.5871 34.9998 18.3333 34.2536 18.3333 33.3332C18.3333 32.4127 17.5871 31.6665 16.6667 31.6665C15.7462 31.6665 15 32.4127 15 33.3332C15 34.2536 15.7462 34.9998 16.6667 34.9998Z" stroke="#006FEE" stroke-width="2" stroke-linejoin="round"/>
<path d="M29.1667 34.9998C30.0871 34.9998 30.8333 34.2536 30.8333 33.3332C30.8333 32.4127 30.0871 31.6665 29.1667 31.6665C28.2462 31.6665 27.5 32.4127 27.5 33.3332C27.5 34.2536 28.2462 34.9998 29.1667 34.9998Z" stroke="#006FEE" stroke-width="2" stroke-linejoin="round"/>
</g>
</g>
<defs>
<clipPath id="clip0_402_6721">
<rect width="40" height="40" fill="white"/>
</clipPath>
</defs>
</svg>
