<svg width="40" height="40" viewBox="0 0 600 550" fill="none" xmlns="http://www.w3.org/2000/svg">
<path fill-rule="evenodd" clip-rule="evenodd" d="M162.502 -0.000152198H537.498C571.949 -0.000152198 600 28.0513 600 62.5022V337.496C600 371.947 571.949 399.998 537.498 399.998H162.502C128.056 399.998 100.004 371.947 100.004 337.496V62.5022C100.004 28.0513 128.056 -0.000152198 162.502 -0.000152198ZM537.498 50.0008H162.502C155.604 50.0008 150.005 55.5992 150.005 62.5022V298.472L219.003 229.497C236.077 212.4 263.905 212.4 281.002 229.497L311.251 259.672L404.102 148.227C412.401 138.275 424.55 132.525 437.5 132.452C450.524 132.75 462.65 138 471.027 147.824L549.999 239.975V62.5022C549.999 55.5992 544.401 50.0008 537.498 50.0008ZM225.021 175.006C252.596 175.006 275.017 152.58 275.017 125.005C275.017 97.4294 252.596 75.0038 225.021 75.0038C197.445 75.0038 175.02 97.4294 175.02 125.005C175.02 152.58 197.445 175.006 225.021 175.006ZM156.233 437.507C116.211 437.507 80.611 411.882 67.6839 373.733L66.8096 370.858C63.7609 360.755 62.4838 352.259 62.4838 343.759V173.308L1.83537 375.756C-5.96483 405.533 11.8099 436.404 41.6329 444.63L428.205 548.157C433.03 549.407 437.855 550.006 442.606 550.006C467.504 550.006 490.254 533.481 496.631 509.128L519.153 437.507H156.233Z" fill="#9B9B9B"/>
</svg>
