<svg width="40" height="40" viewBox="0 0 32 32" fill="none" xmlns="http://www.w3.org/2000/svg">
<path d="M16.0002 18.6666H17.3336C18.8002 18.6666 20.0002 17.4666 20.0002 16V2.66663H8.00024C6.00024 2.66663 4.25359 3.77328 3.34692 5.39994" stroke="#006FEE" stroke-width="2" stroke-linecap="round" stroke-linejoin="round"/>
<path d="M2.6687 22.6666C2.6687 24.88 4.45537 26.6666 6.6687 26.6666H8.00203C8.00203 25.2 9.20203 24 10.6687 24C12.1354 24 13.3354 25.2 13.3354 26.6666H18.6687C18.6687 25.2 19.8687 24 21.3354 24C22.802 24 24.002 25.2 24.002 26.6666H25.3354C27.5487 26.6666 29.3354 24.88 29.3354 22.6666V18.6666H25.3354C24.602 18.6666 24.002 18.0666 24.002 17.3333V13.3333C24.002 12.6 24.602 12 25.3354 12H27.0553L24.7754 8.01331C24.2954 7.18664 23.4154 6.66663 22.4554 6.66663H20.002V16C20.002 17.4666 18.802 18.6666 17.3354 18.6666H16.002" stroke="#006FEE" stroke-width="2" stroke-linecap="round" stroke-linejoin="round"/>
<path d="M10.6667 29.3333C12.1394 29.3333 13.3333 28.1394 13.3333 26.6667C13.3333 25.1939 12.1394 24 10.6667 24C9.19391 24 8 25.1939 8 26.6667C8 28.1394 9.19391 29.3333 10.6667 29.3333Z" stroke="#006FEE" stroke-width="2" stroke-linecap="round" stroke-linejoin="round"/>
<path d="M21.3354 29.3333C22.8081 29.3333 24.002 28.1394 24.002 26.6667C24.002 25.1939 22.8081 24 21.3354 24C19.8626 24 18.6687 25.1939 18.6687 26.6667C18.6687 28.1394 19.8626 29.3333 21.3354 29.3333Z" stroke="#006FEE" stroke-width="2" stroke-linecap="round" stroke-linejoin="round"/>
<path d="M29.3333 16V18.6667H25.3333C24.6 18.6667 24 18.0667 24 17.3333V13.3333C24 12.6 24.6 12 25.3333 12H27.0533L29.3333 16Z" stroke="#006FEE" stroke-width="2" stroke-linecap="round" stroke-linejoin="round"/>
<path d="M2.6687 10.6666H10.6687" stroke="#006FEE" stroke-width="2" stroke-linecap="round" stroke-linejoin="round"/>
<path d="M2.6687 14.6666H8.00203" stroke="#006FEE" stroke-width="2" stroke-linecap="round" stroke-linejoin="round"/>
<path d="M2.6687 18.6666H5.33537" stroke="#006FEE" stroke-width="2" stroke-linecap="round" stroke-linejoin="round"/>
</svg>
