<svg width="40" height="40" viewBox="0 0 81 81" fill="none" xmlns="http://www.w3.org/2000/svg">
<path d="M37.166 50.5003H43.8327V57.167H37.166V50.5003ZM37.166 23.8337H43.8327V43.8337H37.166V23.8337ZM40.466 7.16699C22.066 7.16699 7.16602 22.1003 7.16602 40.5003C7.16602 58.9003 22.066 73.8337 40.466 73.8337C58.8993 73.8337 73.8327 58.9003 73.8327 40.5003C73.8327 22.1003 58.8993 7.16699 40.466 7.16699ZM40.4993 67.167C25.766 67.167 13.8327 55.2337 13.8327 40.5003C13.8327 25.767 25.766 13.8337 40.4993 13.8337C55.2327 13.8337 67.166 25.767 67.166 40.5003C67.166 55.2337 55.2327 67.167 40.4993 67.167Z" fill="#006FEE"/>
</svg>
