<svg width="40" height="40" viewBox="0 0 32 32" fill="none" xmlns="http://www.w3.org/2000/svg">
<path d="M8.93762 12.3467L16.0043 16.44L23.0176 12.3733" stroke="#006FEE" stroke-width="2" stroke-linecap="round" stroke-linejoin="round"/>
<path d="M16.0033 23.6934V16.4268" stroke="#006FEE" stroke-width="2" stroke-linecap="round" stroke-linejoin="round"/>
<path d="M14.3486 8.3868L10.0819 10.7601C9.12191 11.2935 8.3219 12.6401 8.3219 13.7468V18.2668C8.3219 19.3735 9.10858 20.7201 10.0819 21.2535L14.3486 23.6268C15.2553 24.1335 16.7486 24.1335 17.6686 23.6268L21.9353 21.2535C22.8953 20.7201 23.6952 19.3735 23.6952 18.2668V13.7335C23.6952 12.6268 22.9086 11.2801 21.9353 10.7468L17.6686 8.37347C16.7486 7.8668 15.2553 7.8668 14.3486 8.3868Z" stroke="#006FEE" stroke-width="2" stroke-linecap="round" stroke-linejoin="round"/>
<path d="M29.3303 19.9999C29.3303 25.1599 25.1569 29.3332 19.9969 29.3332L21.3969 26.9999" stroke="#006FEE" stroke-width="2" stroke-linecap="round" stroke-linejoin="round"/>
<path d="M2.66565 12C2.66565 6.84002 6.83898 2.66669 11.999 2.66669L10.599 5.00002" stroke="#006FEE" stroke-width="2" stroke-linecap="round" stroke-linejoin="round"/>
</svg>
