<svg width="40" height="40" viewBox="0 0 40 40" fill="none" xmlns="http://www.w3.org/2000/svg">
<g opacity="0.4">
<rect x="1" y="1" width="38" height="38" rx="19" stroke="#313A5C" stroke-width="2"/>
<path d="M20 12C17.243 12 15 14.243 15 17H17C17 15.346 18.346 14 20 14C21.654 14 23 15.346 23 17C23 18.069 22.546 18.465 21.519 19.255C21.137 19.549 20.706 19.881 20.293 20.293C18.981 21.604 18.995 22.897 19 23V25H21V22.991C21 22.967 21.023 22.39 21.707 21.707C22.027 21.387 22.389 21.109 22.738 20.84C23.798 20.024 25 19.1 25 17C25 14.243 22.757 12 20 12ZM19 26H21V28H19V26Z" fill="#313A5C"/>
</g>
</svg>
