<svg width="40" height="40" viewBox="0 0 40 40" fill="none" xmlns="http://www.w3.org/2000/svg">
<g clip-path="url(#clip0_16_753)">
<path d="M4.91672 30.2808H35.5478C36.5781 30.2808 37.4216 29.4373 37.4216 28.4082V8.54738C37.4216 7.51707 36.578 6.6748 35.5478 6.6748H4.91672C3.88523 6.6748 3.04297 7.51707 3.04297 8.54738V28.4082C3.04297 29.4373 3.88523 30.2808 4.91672 30.2808ZM5.47945 9.10895H34.9863V27.8443H5.47945V9.10895Z" fill="#006FEE"/>
<path d="M0 32.3574V32.8262C0 33.6502 0.673828 34.3252 1.49906 34.3252H38.501C39.3262 34.3252 40.0001 33.6502 40.0001 32.8262V32.3574H0Z" fill="#006FEE"/>
<circle cx="20" cy="13" r="1" fill="#006FEE"/>
</g>
<defs>
<clipPath id="clip0_16_753">
<rect width="40" height="40" fill="white"/>
</clipPath>
</defs>
</svg>
