<svg width="40" height="40" viewBox="0 0 40 40" fill="none" xmlns="http://www.w3.org/2000/svg">
    <path d="M15.254 9.01364C17.365 5.22656 18.4205 3.33301 19.9987 3.33301C21.5769 3.33301 22.6324 5.22654 24.7434 9.01362L25.2895 9.99339C25.8895 11.0696 26.1894 11.6077 26.6572 11.9627C27.1249 12.3177 27.7072 12.4495 28.8722 12.7131L29.9329 12.9531C34.0322 13.8806 36.082 14.3444 36.5697 15.9126C37.0574 17.4807 35.66 19.1148 32.8652 22.3828L32.1422 23.2283C31.348 24.157 30.9509 24.6213 30.7722 25.1958C30.5937 25.7703 30.6537 26.3898 30.7737 27.629L30.883 28.757C31.3055 33.1173 31.5169 35.2975 30.2402 36.2667C28.9634 37.2358 27.0442 36.3522 23.2059 34.585L22.2129 34.1277C21.1222 33.6255 20.5769 33.3743 19.9987 33.3743C19.4205 33.3743 18.8752 33.6255 17.7845 34.1277L16.7915 34.585C12.9532 36.3522 11.034 37.2358 9.75728 36.2667C8.48057 35.2975 8.69183 33.1173 9.11437 28.757L9.22367 27.629C9.34375 26.3898 9.40378 25.7703 9.22513 25.1958C9.0465 24.6213 8.64942 24.157 7.85523 23.2283L7.1322 22.3828C4.33745 19.1148 2.94007 17.4807 3.42773 15.9126C3.9154 14.3444 5.96513 13.8806 10.0646 12.9531L11.1252 12.7131C12.2901 12.4495 12.8726 12.3177 13.3403 11.9627C13.808 11.6077 14.1079 11.0696 14.7078 9.99339L15.254 9.01364Z" fill="#006FEE" />
</svg>
