<svg width="40" height="40" viewBox="0 0 40 40" fill="none" xmlns="http://www.w3.org/2000/svg">
<path d="M32.5 34.0625H7.5C6.9825 34.0625 6.5625 34.4825 6.5625 35C6.5625 35.5175 6.9825 35.9375 7.5 35.9375H32.5C33.0175 35.9375 33.4375 35.5175 33.4375 35C33.4375 34.4825 33.0175 34.0625 32.5 34.0625ZM35 4.0625H5C3.1025 4.065 1.565 5.6025 1.5625 7.5V27.5C1.565 29.3975 3.1025 30.935 5 30.9375H35C36.8975 30.935 38.435 29.3975 38.4375 27.5V7.5C38.435 5.6025 36.8975 4.065 35 4.0625ZM36.5625 27.5C36.5612 28.3625 35.8625 29.0613 35 29.0625H5C4.1375 29.0613 3.43875 28.3625 3.4375 27.5V7.5C3.43875 6.6375 4.1375 5.93875 5 5.9375H35C35.8625 5.93875 36.5612 6.6375 36.5625 7.5V27.5Z" fill="#006FEE" stroke="#006FEE" stroke-width="0.5"/>
</svg>
